<svg width="96" height="109" viewBox="0 0 96 109" fill="none" xmlns="http://www.w3.org/2000/svg">
<path d="M32.6224 0.485985C29.8849 0.886803 26.3974 2.11035 23.8099 3.58704C20.2661 5.59113 16.0474 9.70478 14.0224 13.1223C11.3411 17.6367 9.82239 22.6786 9.52239 28.1845L9.40989 30.3996L7.81614 31.4966C5.94114 32.7834 3.67239 35.2094 2.56614 37.1713C1.68489 38.6902 0.822392 41.074 0.334892 43.2468C-0.152608 45.3775 -0.096358 50.2295 0.428642 52.4234C2.39739 60.5663 7.94739 66.0301 15.1474 66.8317L16.4036 66.9583V77.4639C16.4036 87.4844 16.4224 87.9907 16.7599 88.4548L17.1161 88.9611L30.9724 89.0665C44.4911 89.172 44.8286 89.172 45.4661 89.615C45.9911 89.9526 46.1599 90.2479 46.3474 91.0917C46.5911 92.1887 47.2849 93.0747 47.9036 93.0747C48.5224 93.0747 49.2161 92.1887 49.4599 91.0917C49.6474 90.2479 49.8161 89.9526 50.3411 89.615C50.9786 89.172 51.3161 89.172 64.8349 89.0665L78.6911 88.9611L79.0474 88.4548C79.3849 87.9907 79.4036 87.4844 79.4036 77.4639V66.9794L80.7349 66.8317C87.5411 66.0723 92.9599 61.0937 95.0224 53.7314C97.0099 46.6432 95.4911 39.0699 91.1036 34.1335C89.6786 32.5513 88.2161 31.4333 86.0599 30.2941L84.3161 29.387L84.1849 28.3744C83.9786 26.729 82.8161 23.0794 81.8599 20.9909C76.7974 10.1689 65.4349 4.43087 54.9911 7.42645L53.5286 7.84837L52.1411 6.62482C46.6661 1.70953 39.5974 -0.505508 32.6224 0.485985ZM41.3599 4.32539C44.9974 5.38017 47.8286 7.00454 50.6036 9.5993C52.8161 11.6667 52.6661 11.6245 54.9911 10.9494C58.8536 9.83135 61.6849 9.72588 65.2099 10.5908C73.4411 12.616 80.0224 20.3792 81.3349 29.6612C81.6536 31.7919 81.8786 32.1716 83.2286 32.6568C87.9349 34.3867 91.2161 38.2261 92.4724 43.5C92.9599 45.6095 92.9224 49.8498 92.3786 52.0015C90.7286 58.5201 86.3786 62.7392 80.5849 63.4564L79.4036 63.6041V53.0141V42.4241L78.9349 41.8967L78.4661 41.3904L64.5536 41.4326L50.6224 41.4959L49.8536 41.96C49.4224 42.2131 48.8224 42.6772 48.4849 42.9726L47.9036 43.5422L47.3224 42.9726C46.9849 42.6772 46.3849 42.2131 45.9536 41.96L45.1849 41.4959L31.2536 41.4326L17.3411 41.3904L16.8724 41.8967L16.4036 42.4241V53.0141V63.6041L15.2786 63.4564C11.7161 62.9923 8.52864 61.1359 6.37239 58.2458C3.39114 54.2166 2.22864 48.4785 3.37239 43.3945C3.76614 41.6647 4.96614 38.9855 5.94114 37.6565C7.04739 36.1587 8.82864 34.5976 10.4974 33.6694C11.2661 33.2475 12.0161 32.7412 12.1474 32.5513C12.3349 32.3193 12.4474 31.3489 12.5224 29.2604C12.7099 23.5857 13.9661 19.2189 16.6286 14.8732C20.0036 9.36725 25.9661 5.19032 32.1724 3.94567C34.6099 3.48157 39.0536 3.65033 41.3599 4.32539ZM44.9036 45.2298C45.2411 45.5041 45.7099 45.9893 45.9161 46.3057C46.3099 46.8964 46.3099 47.0019 46.3661 66.5786L46.4036 86.2608L45.2411 85.9866C44.3411 85.7545 41.1724 85.6912 31.7411 85.6912H19.4036V65.2285V44.7657H31.8536H44.2849L44.9036 45.2298ZM76.4036 65.2285V85.6912H64.0849C54.6349 85.6912 51.4661 85.7545 50.5661 85.9866L49.4036 86.2608L49.4411 66.5786C49.4974 47.0019 49.4974 46.8964 49.8911 46.3057C50.0974 45.9893 50.5661 45.5041 50.9036 45.2298L51.5224 44.7657H63.9536H76.4036V65.2285Z" fill="white"/>
<path d="M32.3413 11.2026C27.0163 12.5105 22.385 16.6875 20.2475 22.109C19.4225 24.1975 19.01 26.3493 18.8975 28.944C18.8038 31.2012 18.8225 31.4122 19.2163 31.9396C19.535 32.4037 19.7788 32.5303 20.3413 32.5303C21.5225 32.5303 21.7663 31.9607 21.8788 29.1128C21.9913 26.4125 22.61 23.9865 23.735 21.8348C24.56 20.2737 27.0725 17.4469 28.4413 16.5187C32.66 13.7341 37.7038 13.3965 41.81 15.6116C42.635 16.0757 43.76 16.8562 44.3225 17.3625C46.3475 19.2189 46.835 19.4088 47.6225 18.5017C48.635 17.3836 48.0538 16.1179 45.6163 14.2404C43.7788 12.827 42.6163 12.173 40.6475 11.519C38.3975 10.7596 34.7038 10.6119 32.3413 11.2026Z" fill="white"/>
<path d="M23.6226 52.8243C22.6664 53.3938 22.4789 54.7018 23.2101 55.4823C23.6414 55.9464 23.6601 55.9464 32.9226 55.9464H42.2226L42.6164 55.4612C43.0289 54.976 43.1414 54.1955 42.9164 53.5204C42.5976 52.6133 42.2039 52.5711 32.8664 52.5711C26.8101 52.5922 23.8851 52.6555 23.6226 52.8243Z" fill="white"/>
<path d="M23.2476 64.0682C22.9476 64.3847 22.7788 64.8277 22.7788 65.2285C22.7788 65.6293 22.9476 66.0723 23.2476 66.3887L23.6976 66.9161H32.9038H42.1101L42.5601 66.3887C43.2163 65.6715 43.1976 64.5745 42.5413 63.9838C42.0538 63.5408 41.8663 63.5408 32.8663 63.5408H23.6976L23.2476 64.0682Z" fill="white"/>
<path d="M23.1909 74.9957C22.4409 75.9029 22.7222 77.253 23.7347 77.6538C24.5597 77.9702 41.2472 77.9702 42.0722 77.6538C43.0659 77.253 43.3659 75.8607 42.6534 74.9746L42.2597 74.5105H32.9222H23.5847L23.1909 74.9957Z" fill="white"/>
<path d="M53.5851 52.7821C52.7039 53.1829 52.4976 54.7229 53.2101 55.4823C53.6414 55.9464 53.6601 55.9464 62.9226 55.9464H72.2226L72.6164 55.4612C73.0289 54.976 73.1414 54.1955 72.9164 53.5204C72.5976 52.6133 72.2226 52.5711 62.8664 52.5922C57.9914 52.5922 53.8101 52.6766 53.5851 52.7821Z" fill="white"/>
<path d="M53.2663 63.9838C52.6101 64.5745 52.5913 65.6715 53.2476 66.3887L53.6976 66.9161H62.9038H72.1101L72.5601 66.3887C72.8601 66.0723 73.0288 65.6293 73.0288 65.2285C73.0288 64.8277 72.8601 64.3847 72.5601 64.0682L72.1101 63.5408H62.9413C53.9413 63.5408 53.7538 63.5408 53.2663 63.9838Z" fill="white"/>
<path d="M53.1536 74.9324C52.7598 75.3754 52.6661 76.388 52.9661 77.042C53.0598 77.253 53.4161 77.5272 53.7348 77.6538C54.5411 77.9702 71.2848 77.9702 72.0161 77.6749C73.0848 77.2108 73.3848 75.7974 72.5973 74.9746C72.1661 74.5105 72.1473 74.5105 62.8473 74.5105C53.7723 74.5105 53.5098 74.5316 53.1536 74.9324Z" fill="white"/>
<path d="M16.8726 97.3993C16.4038 97.9056 16.4038 97.9056 16.4038 102.336C16.4038 106.977 16.4976 107.61 17.2288 108.031C17.5101 108.2 24.9163 108.264 44.9976 108.221L72.3726 108.158L75.6913 105.964C79.1976 103.644 79.5538 103.243 79.2913 102.061C79.1601 101.407 78.9726 101.281 74.9788 98.7072L72.1476 96.8719H44.7351H17.3226L16.8726 97.3993ZM23.7163 102.568V104.888H21.5601H19.4038V102.568V100.247H21.5601H23.7163V102.568ZM69.3726 102.568V104.888H48.0538H26.7163V102.568V100.247H48.0538H69.3726V102.568ZM73.6851 101.745C74.2476 102.104 74.7163 102.462 74.7163 102.547C74.7163 102.779 72.5413 104.044 72.4101 103.897C72.2038 103.665 72.2601 101.091 72.4663 101.091C72.5788 101.091 73.1226 101.386 73.6851 101.745Z" fill="white"/>
</svg>
