<svg width="25" height="25" viewBox="0 0 25 25" fill="none" xmlns="http://www.w3.org/2000/svg">
<path d="M9.06877 0.0272541C5.98928 0.421015 3.36966 2.01247 1.70263 4.51449C-1.04838 8.63257 -0.407845 14.1534 3.20542 17.525C5.1106 19.3051 7.50028 20.2403 10.1281 20.2403C12.411 20.2403 14.4148 19.584 16.1886 18.2633L16.8291 17.7793L17.6913 18.6243C18.1676 19.0836 19.81 20.7079 21.3457 22.2337C24.3759 25.228 24.3677 25.228 24.7947 24.7932C24.9343 24.6619 25 24.5061 25 24.3256C25 24.0795 24.6715 23.7349 21.3867 20.4454L17.7817 16.8359L17.9459 16.6308C19.0545 15.2527 19.8675 13.4725 20.1631 11.7909C20.311 10.9377 20.2945 9.04274 20.1139 8.2224C19.2516 4.12893 16.3282 1.14291 12.2714 0.215931C11.5898 0.0600681 9.70109 -0.0547791 9.06877 0.0272541ZM12.3125 1.65152C13.2158 1.88121 14.3655 2.40623 15.1621 2.93944C15.8601 3.40704 16.9933 4.56371 17.4778 5.30201C18.414 6.7376 18.841 8.08295 18.8985 9.86307C18.9888 12.4061 18.2005 14.4652 16.4349 16.2781C14.735 18.0254 12.6081 18.9278 10.1774 18.9278C6.72015 18.9278 3.75563 17.0738 2.23641 13.9647C-0.317514 8.7064 2.89337 2.53748 8.74029 1.48745C9.69288 1.31518 11.3024 1.38901 12.3125 1.65152Z" fill="#620190"/>
</svg>
